<svg width="80" height="80" viewBox="0 0 80 80" fill="none" xmlns="http://www.w3.org/2000/svg">
    <path
        d="M0 40C0 17.9086 17.9086 0 40 0C62.0914 0 80 17.9086 80 40C80 62.0914 62.0914 80 40 80C17.9086 80 0 62.0914 0 40Z"
        fill="white" />
    <path
        d="M39.9999 40C43.8462 40 46.9642 36.882 46.9642 33.0357C46.9642 29.1894 43.8462 26.0714 39.9999 26.0714C36.1537 26.0714 33.0356 29.1894 33.0356 33.0357C33.0356 36.882 36.1537 40 39.9999 40Z"
        stroke="#1C1F32" stroke-width="1.5" stroke-linecap="round" stroke-linejoin="round" />
    <path
        d="M53.2431 53.9285C52.3433 51.1233 50.5761 48.6762 48.1963 46.9398C45.8161 45.2037 42.9462 44.2682 40.0002 44.2682C37.0542 44.2682 34.1843 45.2037 31.8042 46.9398C29.4242 48.6762 27.6569 51.1233 26.7573 53.9285H53.2431Z"
        stroke="#1C1F32" stroke-width="1.5" stroke-linecap="round" stroke-linejoin="round" />
</svg>
    