<svg width="1440" height="4500" viewBox="0 0 1440 4500" fill="none" xmlns="http://www.w3.org/2000/svg">
<mask id="mask0_131_3678" style="mask-type:alpha" maskUnits="userSpaceOnUse" x="0" y="0" width="1440" height="4500">
<rect width="1440" height="4500" fill="#D9D9D9"/>
</mask>
<g mask="url(#mask0_131_3678)">
<g opacity="0.15">
<path d="M-157 3488.2C-157 4040.93 298.638 4490.76 858.5 4490.76C1418.36 4490.76 1874 4040.93 1874 3488.2V2506.57C1874 1953.84 1418.36 1504 858.5 1504C298.638 1504 -157 1953.84 -157 2506.57V3488.2Z" fill="url(#paint0_linear_131_3678)"/>
</g>
<path d="M-209 3133.38C-209 3525.71 167.337 3845 629.759 3845C1092.18 3845 1468.52 3525.71 1468.52 3133.38V2436.62C1468.52 2044.29 1092.18 1725 629.759 1725C167.337 1725 -209 2044.29 -209 2436.62V3133.38Z" fill="white"/>
<g opacity="0.15">
<path d="M-947 -182.337C-947 494.769 -388.838 1045.82 297 1045.82C982.838 1045.82 1541 494.769 1541 -182.337V-1384.84C1541 -2061.95 982.838 -2613 297 -2613C-388.838 -2613 -947 -2061.95 -947 -1384.84V-182.337Z" fill="url(#paint1_linear_131_3678)"/>
</g>
<path d="M-180 -328.337C-180 348.769 378.162 899.823 1064 899.823C1749.84 899.823 2308 348.769 2308 -328.337V-1530.84C2308 -2207.95 1749.84 -2759 1064 -2759C378.162 -2759 -180 -2207.95 -180 -1530.84V-328.337Z" fill="white"/>
</g>
<defs>
<linearGradient id="paint0_linear_131_3678" x1="-157" y1="1504" x2="2549.66" y2="3630.96" gradientUnits="userSpaceOnUse">
<stop stop-color="#FFBBC6"/>
<stop offset="1" stop-color="#00496D"/>
</linearGradient>
<linearGradient id="paint1_linear_131_3678" x1="-947" y1="-2613" x2="2368.69" y2="-7.44919" gradientUnits="userSpaceOnUse">
<stop stop-color="#FFBBC6"/>
<stop offset="1" stop-color="#00496D"/>
</linearGradient>
</defs>
</svg>
