<svg fill="none" height="2915" viewBox="0 0 1440 2915" width="1440" xmlns="http://www.w3.org/2000/svg" xmlns:xlink="http://www.w3.org/1999/xlink"><clipPath id="a"><path d="m0 0h1440v3976h-1440z"/></clipPath><g clip-path="url(#a)"><g fill="#d5dde4"><path d="m-427 4148.2c0 552.73 455.638 1002.56 1015.5 1002.56 559.86 0 1015.5-449.83 1015.5-1002.56v-981.63c0-552.73-455.64-1002.57-1015.5-1002.57-559.862 0-1015.5 449.84-1015.5 1002.57z" opacity=".3"/><path d="m-219 3793.38c0 392.33 376.337 711.62 838.759 711.62 462.421 0 838.761-319.29 838.761-711.62v-696.76c0-392.33-376.34-711.62-838.761-711.62-462.422 0-838.759 319.29-838.759 711.62z" opacity=".15"/><path d="m-896 642.663c0 677.107 558.162 1228.157 1244 1228.157 685.84 0 1244-551.05 1244-1228.157v-1202.503c0-677.11-558.16-1228.16-1244-1228.16-685.838 0-1244 551.05-1244 1228.16z" opacity=".1"/></g><path d="m-594-183.337c0 677.106 558.162 1228.157 1244 1228.157 685.84 0 1244-551.051 1244-1228.157v-1202.503c0-677.11-558.16-1228.16-1244-1228.16-685.838 0-1244 551.05-1244 1228.16z" fill="#1c1f32"/></g></svg>