<svg width="1440" height="3940" viewBox="0 0 1440 3940" fill="none" xmlns="http://www.w3.org/2000/svg">
<g opacity="0.2">
<mask id="mask0_584_3883" style="mask-type:alpha" maskUnits="userSpaceOnUse" x="-944" y="0" width="3255" height="4500">
<rect x="-944" width="3255" height="4500" fill="#fff"/>
</mask>
<g mask="url(#mask0_584_3883)">
<path d="M-204 3423.38C-204 3815.71 172.337 4135 634.759 4135C1097.18 4135 1473.52 3815.71 1473.52 3423.38V2726.62C1473.52 2334.29 1097.18 2015 634.759 2015C172.337 2015 -204 2334.29 -204 2726.62V3423.38Z" fill="#fff"/>
<path d="M-175 121.663C-175 798.769 383.162 1349.82 1069 1349.82C1754.84 1349.82 2313 798.769 2313 121.663V-1080.84C2313 -1757.95 1754.84 -2309 1069 -2309C383.162 -2309 -175 -1757.95 -175 -1080.84V121.663Z" fill="#fff"/>
</g>
</g>
</svg>
