<svg width="1440" height="3976" viewBox="0 0 1440 3976" xmlns="http://www.w3.org/2000/svg" xmlns:xlink="http://www.w3.org/1999/xlink"><clipPath id="a"><path d="m0 0h1440v3976h-1440z"/></clipPath><g clip-path="url(#a)"><path d="m-157 4158.2c0 552.73 455.638 1002.56 1015.5 1002.56 559.86 0 1015.5-449.83 1015.5-1002.56v-981.63c0-552.73-455.64-1002.57-1015.5-1002.57-559.862 0-1015.5 449.84-1015.5 1002.57z" fill="#ccc" opacity=".15"/><path d="m-209 3803.38c0 392.33 376.337 711.62 838.759 711.62 462.421 0 838.761-319.29 838.761-711.62v-696.76c0-392.33-376.34-711.62-838.761-711.62-462.422 0-838.759 319.29-838.759 711.62z" fill="#f2f2f2"/><path d="m-947-242.337c0 677.106 558.162 1228.157 1244 1228.157s1244-551.051 1244-1228.157v-1202.503c0-677.11-558.162-1228.16-1244-1228.16s-1244 551.05-1244 1228.16z" fill="#ccc" opacity=".15"/><path d="m-180-278.337c0 677.106 558.162 1228.16 1244 1228.16 685.84 0 1244-551.054 1244-1228.16v-1202.503c0-677.11-558.16-1228.16-1244-1228.16-685.838 0-1244 551.05-1244 1228.16z" fill="#f2f2f2"/></g></svg>