<svg width="32" height="32" viewBox="0 0 32 32" fill="none" xmlns="http://www.w3.org/2000/svg">
<path fill-rule="evenodd" clip-rule="evenodd" d="M7.20001 3.19995C4.99087 3.19995 3.20001 4.99082 3.20001 7.19995V24.7999C3.20001 27.0091 4.99088 28.7999 7.20002 28.7999H15.8475V28.8001H19.4676V28.7999H24.8C27.0091 28.7999 28.8 27.0091 28.8 24.7999V7.19995C28.8 4.99081 27.0091 3.19995 24.8 3.19995H7.20001ZM19.4676 28.7999V20.043H22.4868L22.9387 16.6299H19.4676V14.4503C19.4676 13.4627 19.7492 12.7889 21.2046 12.7889L23.0606 12.788V9.73483C22.7394 9.69337 21.6381 9.60008 20.356 9.60008C17.6794 9.60008 15.8475 11.1907 15.8475 14.112V16.6289H12.8206V20.042H15.8475V28.7999H19.4676Z" fill="#404B59"/>
</svg>
