<svg fill="none" height="32" viewBox="0 0 32 32" width="32" xmlns="http://www.w3.org/2000/svg"><path clip-rule="evenodd" d="m7.20001 3.19995c-2.20914 0-4 1.79087-4 4v17.59995c0 2.2092 1.79087 4 4.00001 4h8.64748v.0002h3.6201v-.0002h5.3324c2.2091 0 4-1.7908 4-4v-17.59995c0-2.20914-1.7909-4-4-4zm12.26759 25.59995v-8.7569h3.0192l.4519-3.4131h-3.4711v-2.1796c0-.9876.2816-1.6614 1.737-1.6614l1.856-.0009v-3.05317c-.3212-.04146-1.4225-.13475-2.7046-.13475-2.6766 0-4.5085 1.59062-4.5085 4.51192v2.5169h-3.0269v3.4131h3.0269v8.7579z" fill="#404b59" fill-rule="evenodd"/></svg>