<svg fill="none" height="32" viewBox="0 0 32 32" width="32" xmlns="http://www.w3.org/2000/svg"><path clip-rule="evenodd" d="m16 3.19995c-3.4763 0-3.9115.01493-5.2768.0768-4.64852.21333-7.23199 2.79253-7.44532 7.44535-.06293 1.3664-.07787 1.8016-.07787 5.2779 0 3.4762.01494 3.9125.0768 5.2778.21334 4.6485 2.79254 7.232 7.44529 7.4454 1.3664.0618 1.8016.0767 5.2779.0767s3.9125-.0149 5.2779-.0767c4.6442-.2134 7.2341-2.7926 7.4442-7.4454.063-1.3653.0779-1.8016.0779-5.2778 0-3.4763-.0149-3.9115-.0768-5.2768-.2091-4.64432-2.7915-7.23205-7.4443-7.44538-1.3664-.06294-1.8026-.07787-5.2789-.07787zm.0001 6.22725c-3.6299 0-6.57284 2.9429-6.57284 6.5728s2.94294 6.5739 6.57284 6.5739c3.6298 0 6.5728-2.943 6.5728-6.5739 0-3.6299-2.943-6.5728-6.5728-6.5728zm-.0001 10.8396c-2.3563 0-4.2667-1.9094-4.2667-4.2667 0-2.3562 1.9104-4.2666 4.2667-4.2666s4.2667 1.9104 4.2667 4.2666c0 2.3573-1.9104 4.2667-4.2667 4.2667zm6.8331-12.63472c-.8491 0-1.5371.688-1.5371 1.536 0 .84802.688 1.53602 1.5371 1.53602.848 0 1.5349-.688 1.5349-1.53602 0-.848-.6869-1.536-1.5349-1.536z" fill="#0C0C0C" fill-rule="evenodd"/></svg>