<svg fill="none" height="73" viewBox="0 0 120 73" width="120" xmlns="http://www.w3.org/2000/svg"><g fill="#fa7328"><path d="m14.3136.328842h-.0792c-4.0008 0-7.54316 1.684798-9.71756 4.619998-1.404 1.8552-2.34 4.0512-2.34 8.74076v14.5464h3.6744v-14.3088c0-3.8472.7272-5.42156 1.5144-6.55196 1.5384-2.2488 4.05596-3.5424 6.90716-3.5496 2.8512.0072 5.3688 1.2984 6.9096 3.5496.7872 1.1304 1.5144 2.70476 1.5144 6.55196v14.3088h3.6744v-14.5464c0-4.68956-.936-6.88556-2.34-8.74076-2.1744-2.9352-5.7168-4.619998-9.7176-4.619998z"/><path d="m89.0856 30.5088h-3.6936v41.1409h3.6936z"/><path d="m14.5704 68.724c3.0456 0 5.8632-1.2672 8.1456-3.6672l.1104-.12 2.6592 2.4648-.108.12c-2.6976 2.9976-6.6144 4.7184-10.7472 4.7184-3.828 0-7.43276-1.3608-10.15436-3.8352-2.8848-2.6232-4.47359859-6.3096-4.47359859-10.38 0-7.9704 6.19199859-14.2152 14.09755859-14.2152 4.0776 0 7.5744 1.428 10.3872 4.2408l.1104.108-2.34 2.6664-.1248-.12c-2.2776-2.208-5.0544-3.3768-8.0328-3.3768-5.73596 0-10.40396 4.7976-10.40396 10.6968 0 6 4.776 10.6992 10.87436 10.6992z"/><path d="m30.3216 44.4024h3.6936v27.2496h-3.6936z"/><path d="m52.8768 43.812c-3.7872 0-6.8304 1.8385-8.3376 3.7848v-3.1944h-3.6936v27.2496h3.6936v-18.4944c1.4328-3.4896 4.7544-5.8296 8.2776-5.8296.78 0 1.3488.0216 1.5672.0576l.1656.0288.5208-3.4536-.1608-.0264c-.3672-.0624-1.5528-.1224-2.0328-.1224z"/><path d="m69.7416 68.724c3.0456 0 5.8632-1.2672 8.1456-3.6672l.1104-.12 2.6592 2.4648-.108.12c-2.6976 2.9976-6.6144 4.7184-10.7472 4.7184-3.828 0-7.4328-1.3608-10.1544-3.8352-2.8848-2.6232-4.4736-6.3096-4.4736-10.38 0-7.9704 6.192-14.2152 14.0976-14.2152 4.0776 0 7.5744 1.428 10.3872 4.2408l.1104.108-2.34 2.6664-.1248-.12c-2.2776-2.208-5.0544-3.3768-8.0328-3.3768-5.736 0-10.404 4.7976-10.404 10.6968 0 6 4.776 10.6992 10.8744 10.6992z"/><path clip-rule="evenodd" d="m94.2864 58.0272c0-8.1048 5.604-14.2152 13.0346-14.2152 7.229 0 12.679 5.7312 12.679 13.3296 0 .2472 0 .66-.06 1.2l-.017.1464h-21.9358c.3217 6.0385 4.4068 10.2384 9.9818 10.2384 3.439 0 6.374-1.368 8.491-3.9552l.113-.1368 2.599 2.4696-.094.1176c-2.486 3.144-6.64 5.0208-11.109 5.0208-7.927 0-13.6826-5.9784-13.6826-14.2152zm13.0346-10.6992c-4.467 0-8.0282 3.0384-9.1226 7.7592h17.9616c-.77-4.5792-4.38-7.7592-8.839-7.7592z" fill-rule="evenodd"/><path clip-rule="evenodd" d="m46.2192.364848c7.872 0 14.0376 6.244802 14.0376 14.215152 0 7.9704-6.168 14.2129-14.0376 14.2153-7.872 0-14.0376-6.2449-14.0376-14.2153 0-7.97035 6.1656-14.215152 14.0376-14.215152zm-.0024 3.516002c-5.8968 0-10.344 4.6008-10.344 10.69915 0 6.0984 4.4496 10.6968 10.344 10.6968 5.8968 0 10.344-4.5984 10.344-10.6968 0-6.10075-4.4472-10.69915-10.344-10.69915z" fill-rule="evenodd"/><path d="m75.468 22.2168-9.768-21.16556-.0456-.096001h-4.0224l12.6672 27.249561h2.3952l12.4992-27.01676.108-.232801h-4.02z"/><path clip-rule="evenodd" d="m104.525.364848c3.725 0 7.233 1.473602 9.696 4.053602v-3.463204h3.576v27.249554h-3.576v-3.6408c-2.17 2.6568-5.688 4.2289-9.519 4.2289-2.992 0-5.726-.8641-8.1236-2.5681-3.684-2.5776-5.796-6.8208-5.796-11.6448 0-4.3656 1.8504-8.43596 5.076-11.16475 2.376-1.9392 5.5346-3.050402 8.6666-3.050402zm.12 24.911952c3.806 0 7.339-2.1624 9.458-5.784v-10.30075c-1.286-2.1504-4.855-5.3136-9.518-5.3136-2.29 0-4.6178.8256-6.389 2.2656-2.3616 1.9488-3.7176 5.02315-3.7176 8.43355 0 3.6169 1.5624 6.8785 4.1808 8.7216 1.9008 1.3128 3.9148 1.9776 5.9858 1.9776z" fill-rule="evenodd"/></g></svg>