<svg width="151" height="72" viewBox="0 0 151 72" fill="none" xmlns="http://www.w3.org/2000/svg">
<g clip-path="url(#clip0_2_260)">
<path d="M34.1614 28.1571C32.4257 25.7271 29.5585 24.3257 26.3185 24.3257H26.2671C23.0271 24.3257 20.16 25.74 18.4243 28.1571C17.2928 29.7129 16.5471 31.5514 16.5471 35.4857V47.6743H19.1314V35.6786C19.1314 32.3229 19.7485 30.9729 20.4043 29.9443C21.7157 27.9514 23.8371 26.8329 26.28 26.8329C28.7228 26.8329 30.8443 28.0029 32.1557 29.9443C32.8114 30.9214 33.4285 32.3229 33.4285 35.6786V47.6743H36.0128V35.4857C36.0643 31.5 35.3057 29.7129 34.1743 28.1571H34.1614Z" fill="url(#paint0_linear_2_260)"/>
<path d="M26.2671 0C11.7514 0 0 11.9571 0 26.6143V45.3857C0 60.0943 11.8029 72 26.2671 72C40.7314 72 52.5343 60.0429 52.5343 45.3857V26.6143C52.5343 11.9571 40.7314 0 26.2671 0ZM49.9243 45.3857C49.9243 58.6157 39.33 69.3514 26.2671 69.3514C13.2043 69.3514 2.61 58.6157 2.61 45.3857V26.6143C2.61 13.3843 13.2043 2.64857 26.2671 2.64857C39.33 2.64857 49.9243 13.3843 49.9243 26.6143V45.3857Z" fill="url(#paint1_linear_2_260)"/>
<path d="M82.0671 55.9929C80.46 57.69 78.5186 58.5771 76.3714 58.5771C72.09 58.5771 68.7343 55.2729 68.7343 51.0814C68.7343 46.89 72 43.5857 76.0371 43.5857C78.1328 43.5857 80.0743 44.4086 81.6814 45.9643L81.7843 46.0671L83.4428 44.2157L83.34 44.1129C81.3471 42.12 78.9171 41.1429 76.0371 41.1429C70.4957 41.1429 66.1628 45.5271 66.1628 51.12C66.1628 53.9871 67.2814 56.5714 69.2743 58.4229C71.1771 60.1714 73.6971 61.0971 76.3714 61.0971C79.29 61.0971 82.0157 59.8757 83.9057 57.7929L84.0086 57.69L82.1571 55.9414L82.0543 55.9929H82.0671Z" fill="url(#paint2_linear_2_260)"/>
<path d="M90 41.5414H87.4157V60.66H90V41.5414Z" fill="url(#paint3_linear_2_260)"/>
<path d="M104.4 43.6371L104.786 41.2071H104.683C104.439 41.1557 103.616 41.1043 103.269 41.1043C100.594 41.1043 98.4986 42.3643 97.4315 43.7786V41.5414H94.8472V60.66H97.4315V47.7257C98.4472 45.2957 100.787 43.6371 103.217 43.6371C103.757 43.6371 104.143 43.6371 104.336 43.6886L104.387 43.6371H104.4Z" fill="url(#paint4_linear_2_260)"/>
<path d="M120.741 55.9929C119.134 57.69 117.193 58.5771 115.046 58.5771C110.764 58.5771 107.409 55.2729 107.409 51.0814C107.409 46.89 110.674 43.5857 114.711 43.5857C116.807 43.5857 118.749 44.4086 120.356 45.9643L120.459 46.0671L122.117 44.2157L122.014 44.1129C120.021 42.12 117.591 41.1429 114.711 41.1429C109.17 41.1429 104.837 45.5271 104.837 51.12C104.837 53.9871 105.956 56.5714 107.949 58.4229C109.851 60.1714 112.371 61.0971 115.046 61.0971C117.964 61.0971 120.69 59.8757 122.58 57.7929L122.683 57.69L120.831 55.9414L120.729 55.9929H120.741Z" fill="url(#paint5_linear_2_260)"/>
<path d="M128.571 31.8214H126V60.6729H128.571V31.8214Z" fill="url(#paint6_linear_2_260)"/>
<path d="M141.377 41.1043C136.17 41.1043 132.236 45.3857 132.236 51.0814C132.236 56.7771 136.273 61.0586 141.814 61.0586C144.926 61.0586 147.844 59.7471 149.593 57.5614L149.644 57.4586L147.844 55.71L147.741 55.8129C146.276 57.6129 144.193 58.59 141.801 58.59C137.906 58.59 135.039 55.62 134.794 51.39H150.171V51.2871C150.223 50.9014 150.223 50.6057 150.223 50.4643C150.274 45.1671 146.481 41.13 141.364 41.13L141.377 41.1043ZM135 49.0371C135.784 45.7329 138.266 43.5857 141.377 43.5857C144.489 43.5857 147.021 45.8229 147.561 49.0371H135.013H135Z" fill="url(#paint7_linear_2_260)"/>
<path d="M82.9929 14.4514C81.4886 12.4071 79.0072 11.1857 76.1786 11.1857H76.1272C73.3114 11.1857 70.83 12.3557 69.3129 14.4514C68.3357 15.7628 67.6543 17.2671 67.6543 20.5843V30.8057H70.2386V20.79C70.2386 18.1157 70.7272 16.9971 71.3057 16.2128C72.3729 14.6571 74.1214 13.7314 76.1657 13.7314C78.21 13.7314 79.9072 14.6571 81.0257 16.2128C81.5657 16.9971 82.0929 18.1157 82.0929 20.79V30.8057H84.6772V20.5843C84.6257 17.28 83.9957 15.7243 82.98 14.4514H82.9929Z" fill="url(#paint8_linear_2_260)"/>
<path d="M108.386 21.1628C108.386 15.57 104.053 11.1857 98.5629 11.1857C93.0729 11.1857 88.74 15.57 88.74 21.1628C88.74 26.7557 93.0729 31.14 98.5629 31.14C104.053 31.14 108.386 26.7557 108.386 21.1628ZM105.801 21.1628C105.801 25.4443 102.69 28.6586 98.55 28.6586C94.41 28.6586 91.2986 25.4443 91.2986 21.1628C91.2986 16.8814 94.41 13.6671 98.55 13.6671C102.69 13.6671 105.801 16.9328 105.801 21.1628Z" fill="url(#paint9_linear_2_260)"/>
<path d="M119.096 26.5114L112.23 11.6743L112.179 11.6229H109.363L118.26 30.7414H119.919L128.674 11.7643L128.777 11.6229H125.961L119.096 26.5114Z" fill="url(#paint10_linear_2_260)"/>
<path d="M133.881 29.34C135.579 30.5614 137.481 31.14 139.577 31.14C142.251 31.14 144.733 30.0214 146.237 28.17V30.7029H148.77V11.5843H146.237V14.0143C144.54 12.2143 142.059 11.1986 139.423 11.1986C137.237 11.1986 135 11.9829 133.341 13.3329C131.104 15.2357 129.793 18.1029 129.793 21.1629C129.793 24.57 131.297 27.54 133.881 29.34ZM132.429 21.1629C132.429 18.7843 133.406 16.6371 135.051 15.2229C136.311 14.2071 137.919 13.6157 139.526 13.6157C142.791 13.6157 145.311 15.8529 146.186 17.3571V24.5571C144.681 27.09 142.239 28.5943 139.564 28.5943C138.099 28.5943 136.697 28.1057 135.386 27.2314C133.483 26.01 132.416 23.7343 132.416 21.15L132.429 21.1629Z" fill="url(#paint11_linear_2_260)"/>
</g>
<defs>
<linearGradient id="paint0_linear_2_260" x1="11.3143" y1="-0.192859" x2="140.027" y2="74.1086" gradientUnits="userSpaceOnUse">
<stop stop-color="#FFBBC6"/>
<stop offset="1" stop-color="#9FCBFA"/>
</linearGradient>
<linearGradient id="paint1_linear_2_260" x1="11.3143" y1="-0.192856" x2="140.027" y2="74.1086" gradientUnits="userSpaceOnUse">
<stop stop-color="#FFBBC6"/>
<stop offset="1" stop-color="#9FCBFA"/>
</linearGradient>
<linearGradient id="paint2_linear_2_260" x1="11.3143" y1="-0.192862" x2="140.027" y2="74.1085" gradientUnits="userSpaceOnUse">
<stop stop-color="#FFBBC6"/>
<stop offset="1" stop-color="#9FCBFA"/>
</linearGradient>
<linearGradient id="paint3_linear_2_260" x1="11.3142" y1="-0.192838" x2="140.027" y2="74.1087" gradientUnits="userSpaceOnUse">
<stop stop-color="#FFBBC6"/>
<stop offset="1" stop-color="#9FCBFA"/>
</linearGradient>
<linearGradient id="paint4_linear_2_260" x1="11.3143" y1="-0.192868" x2="140.027" y2="74.1086" gradientUnits="userSpaceOnUse">
<stop stop-color="#FFBBC6"/>
<stop offset="1" stop-color="#9FCBFA"/>
</linearGradient>
<linearGradient id="paint5_linear_2_260" x1="11.3143" y1="-0.192865" x2="140.027" y2="74.1085" gradientUnits="userSpaceOnUse">
<stop stop-color="#FFBBC6"/>
<stop offset="1" stop-color="#9FCBFA"/>
</linearGradient>
<linearGradient id="paint6_linear_2_260" x1="11.3143" y1="-0.192841" x2="140.027" y2="74.1086" gradientUnits="userSpaceOnUse">
<stop stop-color="#FFBBC6"/>
<stop offset="1" stop-color="#9FCBFA"/>
</linearGradient>
<linearGradient id="paint7_linear_2_260" x1="11.3143" y1="-0.192871" x2="140.027" y2="74.1085" gradientUnits="userSpaceOnUse">
<stop stop-color="#FFBBC6"/>
<stop offset="1" stop-color="#9FCBFA"/>
</linearGradient>
<linearGradient id="paint8_linear_2_260" x1="11.3143" y1="-0.192871" x2="140.027" y2="74.1086" gradientUnits="userSpaceOnUse">
<stop stop-color="#FFBBC6"/>
<stop offset="1" stop-color="#9FCBFA"/>
</linearGradient>
<linearGradient id="paint9_linear_2_260" x1="11.3142" y1="-0.192875" x2="140.027" y2="74.1086" gradientUnits="userSpaceOnUse">
<stop stop-color="#FFBBC6"/>
<stop offset="1" stop-color="#9FCBFA"/>
</linearGradient>
<linearGradient id="paint10_linear_2_260" x1="11.3142" y1="-0.19285" x2="140.027" y2="74.1086" gradientUnits="userSpaceOnUse">
<stop stop-color="#FFBBC6"/>
<stop offset="1" stop-color="#9FCBFA"/>
</linearGradient>
<linearGradient id="paint11_linear_2_260" x1="11.3143" y1="-0.192853" x2="140.027" y2="74.1086" gradientUnits="userSpaceOnUse">
<stop stop-color="#FFBBC6"/>
<stop offset="1" stop-color="#9FCBFA"/>
</linearGradient>
<clipPath id="clip0_2_260">
<rect width="150.223" height="72" fill="white"/>
</clipPath>
</defs>
</svg>
