<svg fill="none" height="50" viewBox="0 0 84 50" width="84" xmlns="http://www.w3.org/2000/svg"><path clip-rule="evenodd" d="m16.8179 3.27151c-1.5032-2.04791-3.9828-3.27151-6.8094-3.27151h-.05136c-2.81369 0-5.29333 1.17208-6.80938 3.27151-.97644 1.31375-1.65738 2.82071-1.65738 6.14374v10.23955h2.58243v-10.03347c0-2.67903.48822-3.79959 1.06637-4.58527 1.06637-1.55847 2.81369-2.48583 4.8565-2.48583 2.04282 0 3.73872.92736 4.85652 2.48583.5396.78568 1.0664 1.90624 1.0664 4.58527v10.03347h2.5824v-10.23955c-.0514-3.31015-.681-4.86863-1.6959-6.14374zm45.5457 17.40089h-2.5695v28.9026h2.5695zm-24.1539 11.8366.3854-2.4343h-.1028c-.2441-.0515-1.0664-.103-1.4133-.103-2.6723 0-4.7665 1.2622-5.8329 2.679v-2.2411h-2.5824v19.1525h2.5824v-12.9572c1.015-2.4344 3.3533-4.0959 5.7815-4.0959.5397 0 .9251 0 1.1178.0516l.0514-.0516zm-28.0085 14.9665c2.1456 0 4.0857-.8887 5.6916-2.5888h-.0128l.1028-.0516 1.8501 1.7517-.1028.1031c-1.8887 2.0865-4.6124 3.3101-7.5289 3.3101-2.67234 0-5.19052-.9274-7.09201-2.679-1.99142-1.8547-3.10919-4.4436-3.10919-7.3158 0-5.6028 4.32974-9.9949 9.86718-9.9949 2.87792 0 5.30622.9789 7.29762 2.9753l.1028.103-1.6574 1.8547-.1028-.103c-1.606-1.5585-3.546-2.3828-5.64022-2.3828-4.03424 0-7.2976 3.3102-7.2976 7.509 0 4.1989 3.3533 7.509 7.63162 7.509zm11.0364-17.0659h2.5825v19.1525h-2.5825zm27.6101 17.0659c2.1456 0 4.0856-.8887 5.6916-2.5888h-.0128l.1027-.0516 1.8501 1.7517-.1028.1031c-1.8886 2.0865-4.6123 3.3101-7.5288 3.3101-2.6724 0-5.1906-.9274-7.0921-2.679-1.9914-1.8547-3.1091-4.4436-3.1091-7.3158 0-5.6028 4.3297-9.9949 9.8671-9.9949 2.878 0 5.3062.9789 7.2976 2.9753l.1028.103-1.6574 1.8547-.1027-.103c-1.606-1.5585-3.5461-2.3828-5.6403-2.3828-4.0342 0-7.2976 3.3102-7.2976 7.509 0 4.1989 3.3533 7.509 7.6317 7.509zm17.1775-7.509c0-5.7058 3.9314-9.9948 9.1348-9.9948l-.0128.0257c5.1134 0 8.9036 4.0443 8.8522 9.3509v.0001c0 .1417 0 .4379-.0514.8242v.103h-15.3661c.2441 4.2376 3.1092 7.2128 7.0021 7.2128 2.3897 0 4.4711-.9789 5.9357-2.7821l.1028-.103 1.7987 1.7517-.0514.103c-1.7473 2.1896-4.6638 3.5034-7.7729 3.5034-5.5375 0-9.5717-4.2891-9.5717-9.9949zm9.1348-7.509c-3.1092 0-5.5888 2.151-6.3725 5.4611h.0128 12.5396c-.5397-3.22-3.0707-5.4611-6.1799-5.4611zm-42.7833-32.4575c5.486 0 9.8158 4.39206 9.8158 9.99484 0 5.60276-4.3298 9.99486-9.8158 9.99486-5.4861 0-9.8158-4.3921-9.8158-9.99486 0-5.60278 4.3297-9.99484 9.8158-9.99484zm-.0129 17.5039c4.1371 0 7.2462-3.22 7.2462-7.50906 0-4.2375-3.1091-7.50901-7.2462-7.50901-4.137 0-7.2462 3.21999-7.2462 7.50901 0 4.28906 3.1092 7.50906 7.2462 7.50906zm20.5309-2.151-6.8608-14.863453-.0514-.05152h-2.8137l8.8908 19.152473h1.6574l8.7494-19.010794.1028-.141679h-2.8137zm20.4666 4.6368c-2.0942 0-3.9957-.5796-5.6916-1.8032-2.5824-1.8032-4.0856-4.7785-4.0856-8.19166 0-3.06543 1.3105-5.93766 3.546-7.84389 1.6574-1.352394 3.8929-2.1380716 6.077-2.1380716 2.6339 0 5.1135 1.0175116 6.8094 2.8207116v-2.434313h2.531v19.152523h-2.531v-2.5374c-1.5032 1.8547-3.9828 2.9753-6.6552 2.9753zm-4.5224-15.9454c-1.6446 1.4168-2.621 3.56775-2.621 5.95054l-.0129-.01287c0 2.58883 1.0664 4.86863 2.9679 6.09223 1.3105.8758 2.7109 1.3653 4.1756 1.3653 2.6723 0 5.1134-1.507 6.6166-4.0443v-7.21282c-.8736-1.50696-3.3918-3.74807-6.6552-3.74807-1.606 0-3.212.59248-4.471 1.60999z" fill="#000" fill-rule="evenodd"/></svg>