<svg width="551" height="67" viewBox="0 0 551 67" fill="none" xmlns="http://www.w3.org/2000/svg">
    <path
        d="M18.66 51.52C11.04 51.52 4.2 47.5 1.8 40.72L5.34 38.74C7.62 44.44 12.96 47.68 18.72 47.68C25.38 47.68 30.72 42.88 30.72 35.74C30.72 29.02 25.8 24.28 19.26 24.28C14.28 24.28 10.26 26.92 8.22 30.58L4.74 29.2L10.2 3.7H32.58V7.48C26.16 7.48 19.62 7.48 12.48 6.82C11.94 13.48 10.62 19.42 8.4 26.32H8.94C11.22 22.9 15.3 20.74 20.1 20.74C27.84 20.74 35.22 26.2 35.22 35.62C35.22 44.98 27.9 51.52 18.66 51.52ZM46.3073 50.92C44.3873 50.92 42.9473 49.42 42.9473 47.5C42.9473 45.7 44.3873 44.2 46.3073 44.2C48.1073 44.2 49.5473 45.7 49.5473 47.5C49.5473 49.42 48.1073 50.92 46.3073 50.92ZM73.5005 51.52C63.0605 51.52 55.9805 41.56 55.9805 27.22C55.9805 12.82 63.0605 2.74 73.5005 2.74C83.8205 2.74 90.9005 12.82 90.9005 27.22C90.9005 41.56 83.8205 51.52 73.5005 51.52ZM60.6005 27.22C60.6005 39.52 65.8205 47.5 73.5005 47.5C81.1205 47.5 86.2805 39.52 86.2805 27.22C86.2805 14.86 81.1205 6.76 73.5005 6.76C65.8205 6.76 60.6005 14.86 60.6005 27.22Z"
        fill="#1C1F32" />
    <path
        d="M112.58 17.5V6.4H114.58C114.58 7.08 114.66 7.76 114.36 9.02H114.66C115.22 7.1 116.46 6.08 118.02 6.08C118.4 6.08 118.8 6.14 119.2 6.3V8.54C118.78 8.38 118.18 8.3 117.84 8.3C115.38 8.3 114.62 10.68 114.62 12.62V17.5H112.58ZM123.545 17.84C121.665 17.84 119.925 16.84 119.925 14.78C119.925 12.7 121.705 11.84 123.745 11.42C126.005 10.96 127.165 10.88 127.165 9.72C127.165 8.68 126.245 7.76 124.825 7.76C123.585 7.76 122.605 8.5 122.225 9.82L120.305 9.18C120.965 6.96 122.945 6.08 124.925 6.08C127.285 6.08 129.225 7.28 129.225 9.9V14.04C129.225 15.86 129.365 16.64 129.585 17.5H127.565C127.365 16.86 127.265 16.3 127.565 15.2H127.265C126.625 16.9 125.305 17.84 123.545 17.84ZM122.145 14.72C122.145 15.7 122.945 16.24 124.045 16.24C125.985 16.24 127.165 14.5 127.165 13.18V11.86C126.565 12.32 125.845 12.54 124.745 12.76C123.665 12.98 122.145 13.42 122.145 14.72ZM136.21 17.84C133.01 17.84 133.01 15.3 133.01 14.08C133.01 12.14 133.01 10.18 133.31 7.98C132.27 8.24 131.55 8.24 130.81 8.24V6.4C131.55 6.4 132.27 6.4 133.31 6.66C133.01 5.34 133.01 4.26 133.01 3.18H135.05C135.05 4.26 135.05 5.34 134.75 6.66C136.11 6.4 137.19 6.4 138.25 6.4V8.24C137.19 8.24 136.11 8.24 134.75 7.98C135.05 9.96 135.05 11.68 135.05 13.4C135.05 14.56 135.05 16 136.59 16C137.11 16 137.69 15.84 138.25 15.5V17.36C137.69 17.68 136.95 17.84 136.21 17.84ZM145.057 17.84C141.837 17.84 139.437 15.5 139.437 12C139.437 8.56 141.737 6.08 144.937 6.08C147.357 6.08 150.137 7.54 150.137 11.8V12.38H141.497C141.637 14.64 143.137 16.02 145.057 16.02C146.637 16.02 147.797 15.06 148.357 13.68L150.237 14.42C149.457 16.48 147.517 17.84 145.057 17.84ZM141.597 10.96H148.057C147.937 8.66 146.397 7.84 144.917 7.84C143.117 7.84 141.897 9.12 141.597 10.96ZM156.94 17.84C153.92 17.84 151.84 15.38 151.84 11.96C151.84 8.36 154.12 6.08 156.94 6.08C158.64 6.08 159.98 6.92 160.72 8.88H161.02C160.74 6 160.74 3.76 160.76 1.5H162.8V14.04C162.8 15.88 162.94 16.64 163.16 17.5H161.14C160.96 16.78 160.88 16.22 161.04 15.22H160.76C160 17.14 158.5 17.84 156.94 17.84ZM153.96 11.96C153.96 14.24 155.38 15.92 157.34 15.92C159.28 15.92 160.8 14.28 160.8 11.94C160.8 9.6 159.28 7.98 157.34 7.98C155.38 7.98 153.96 9.66 153.96 11.96ZM175.898 17.84C172.558 17.84 170.238 15.44 170.238 11.98C170.238 8.52 172.558 6.08 175.898 6.08C179.198 6.08 181.518 8.52 181.518 11.98C181.518 15.44 179.198 17.84 175.898 17.84ZM172.377 11.98C172.377 14.3 173.798 15.94 175.898 15.94C177.958 15.94 179.378 14.3 179.378 11.98C179.378 9.64 177.958 8 175.898 8C173.798 8 172.377 9.64 172.377 11.98ZM183.889 17.5V6.4H185.889C185.889 7.04 185.889 7.68 185.589 8.68H185.869C186.769 6.76 188.129 6.08 189.629 6.08C191.629 6.08 193.589 7.32 193.589 10.52V17.5H191.549V11.42C191.549 9.26 190.629 8 188.969 8C187.129 8 185.929 9.5 185.929 11.54V17.5H183.889ZM205.273 17.84C202.073 17.84 202.073 15.3 202.073 14.08C202.073 12.14 202.073 10.18 202.373 7.98C201.333 8.24 200.613 8.24 199.873 8.24V6.4C200.613 6.4 201.333 6.4 202.373 6.66C202.073 5.34 202.073 4.26 202.073 3.18H204.113C204.113 4.26 204.113 5.34 203.813 6.66C205.173 6.4 206.253 6.4 207.313 6.4V8.24C206.253 8.24 205.173 8.24 203.813 7.98C204.113 9.96 204.113 11.68 204.113 13.4C204.113 14.56 204.113 16 205.653 16C206.173 16 206.753 15.84 207.313 15.5V17.36C206.753 17.68 206.013 17.84 205.273 17.84ZM209.416 17.5V1.5H211.456C211.456 3.82 211.396 6.16 211.116 8.68H211.396C212.296 6.76 213.656 6.08 215.136 6.08C217.136 6.08 219.116 7.32 219.116 10.52V17.5H217.076V11.42C217.076 9.26 216.156 8 214.496 8C212.656 8 211.456 9.5 211.456 11.54V17.5H209.416ZM226.971 17.84C223.751 17.84 221.351 15.5 221.351 12C221.351 8.56 223.651 6.08 226.851 6.08C229.271 6.08 232.051 7.54 232.051 11.8V12.38H223.411C223.551 14.64 225.051 16.02 226.971 16.02C228.551 16.02 229.711 15.06 230.271 13.68L232.151 14.42C231.371 16.48 229.431 17.84 226.971 17.84ZM223.511 10.96H229.971C229.851 8.66 228.311 7.84 226.831 7.84C225.031 7.84 223.811 9.12 223.511 10.96ZM237.508 17.5L243.648 1.9H246.108L252.248 17.5H249.948C249.348 16.02 248.708 14.4 248.348 12.62L248.128 12.42C245.408 12.84 244.208 12.84 241.648 12.42L241.428 12.64C241.008 14.34 240.368 15.98 239.768 17.5H237.508ZM242.168 10.82L242.328 11.02C244.268 10.62 245.428 10.6 247.368 11.02L247.508 10.82C246.448 8.54 245.668 6.48 245.148 3.82H244.568C244.008 6.5 243.208 8.62 242.168 10.82ZM253.986 21.9V6.4H255.986C255.986 7.08 256.006 7.74 255.726 8.88H256.026C256.986 6.82 258.386 6.08 259.966 6.08C262.946 6.08 264.946 8.62 264.946 11.92C264.946 15.54 262.606 17.84 259.846 17.84C258.166 17.84 256.806 16.98 256.086 15.22H255.786C256.086 17.76 256.026 19.84 256.026 21.9H253.986ZM255.986 11.98C255.986 14.32 257.526 15.94 259.446 15.94C261.406 15.94 262.826 14.24 262.826 11.96C262.826 9.66 261.386 8 259.446 8C257.526 8 255.986 9.62 255.986 11.98ZM267.346 21.9V6.4H269.346C269.346 7.08 269.366 7.74 269.086 8.88H269.386C270.346 6.82 271.746 6.08 273.326 6.08C276.306 6.08 278.306 8.62 278.306 11.92C278.306 15.54 275.966 17.84 273.206 17.84C271.526 17.84 270.166 16.98 269.446 15.22H269.146C269.446 17.76 269.386 19.84 269.386 21.9H267.346ZM269.346 11.98C269.346 14.32 270.886 15.94 272.806 15.94C274.766 15.94 276.186 14.24 276.186 11.96C276.186 9.66 274.746 8 272.806 8C270.886 8 269.346 9.62 269.346 11.98ZM289.424 17.84C287.064 17.84 285.284 16.6 284.724 14.72L286.604 14.12C287.144 15.44 288.304 16.16 289.404 16.16C290.204 16.16 291.424 15.78 291.424 14.58C291.424 13.54 290.424 13.22 289.444 12.94L288.324 12.62C287.124 12.26 285.244 11.52 285.244 9.36C285.244 7.24 287.104 6.08 289.144 6.08C291.204 6.08 292.744 7.28 293.224 8.84L291.324 9.48C291.004 8.58 290.264 7.76 289.044 7.76C288.024 7.76 287.284 8.32 287.284 9.22C287.284 10.34 288.584 10.76 289.564 11.04L290.504 11.32C291.644 11.64 293.564 12.2 293.564 14.36C293.564 16.4 291.904 17.84 289.424 17.84ZM299.745 17.84C296.545 17.84 296.545 15.3 296.545 14.08C296.545 12.14 296.545 10.18 296.845 7.98C295.805 8.24 295.085 8.24 294.345 8.24V6.4C295.085 6.4 295.805 6.4 296.845 6.66C296.545 5.34 296.545 4.26 296.545 3.18H298.585C298.585 4.26 298.585 5.34 298.285 6.66C299.645 6.4 300.725 6.4 301.785 6.4V8.24C300.725 8.24 299.645 8.24 298.285 7.98C298.585 9.96 298.585 11.68 298.585 13.4C298.585 14.56 298.585 16 300.125 16C300.645 16 301.225 15.84 301.785 15.5V17.36C301.225 17.68 300.485 17.84 299.745 17.84ZM308.632 17.84C305.292 17.84 302.972 15.44 302.972 11.98C302.972 8.52 305.292 6.08 308.632 6.08C311.932 6.08 314.252 8.52 314.252 11.98C314.252 15.44 311.932 17.84 308.632 17.84ZM305.112 11.98C305.112 14.3 306.532 15.94 308.632 15.94C310.692 15.94 312.112 14.3 312.112 11.98C312.112 9.64 310.692 8 308.632 8C306.532 8 305.112 9.64 305.112 11.98ZM316.623 17.5V6.4H318.623C318.623 7.08 318.703 7.76 318.403 9.02H318.703C319.263 7.1 320.503 6.08 322.063 6.08C322.443 6.08 322.843 6.14 323.243 6.3V8.54C322.823 8.38 322.223 8.3 321.883 8.3C319.423 8.3 318.663 10.68 318.663 12.62V17.5H316.623ZM329.51 17.84C326.29 17.84 323.89 15.5 323.89 12C323.89 8.56 326.19 6.08 329.39 6.08C331.81 6.08 334.59 7.54 334.59 11.8V12.38H325.95C326.09 14.64 327.59 16.02 329.51 16.02C331.09 16.02 332.25 15.06 332.81 13.68L334.69 14.42C333.91 16.48 331.97 17.84 329.51 17.84ZM326.05 10.96H332.51C332.39 8.66 330.85 7.84 329.37 7.84C327.57 7.84 326.35 9.12 326.05 10.96Z"
        fill="#0C0C0C" />
    <g clip-path="url(#clip0_836_14740)">
        <path fill-rule="evenodd" clip-rule="evenodd"
            d="M123 30.9746C122.66 30.9746 122.327 31.0719 122.04 31.2551C121.757 31.4359 121.531 31.6929 121.388 31.9964L118.666 37.4908C118.661 37.5016 118.656 37.5125 118.651 37.5236C118.65 37.5263 118.648 37.5287 118.645 37.5304C118.643 37.5322 118.64 37.5333 118.637 37.5336C118.627 37.5348 118.616 37.5361 118.606 37.5377L112.613 38.4255C112.282 38.4577 111.966 38.5819 111.702 38.7846C111.428 38.9943 111.221 39.2788 111.106 39.6037C110.991 39.9287 110.972 40.2801 111.052 40.6154C111.132 40.9494 111.307 41.2531 111.556 41.4901L115.942 45.7224L115.952 45.7319C115.958 45.7378 115.963 45.7451 115.966 45.7532C115.968 45.7613 115.969 45.77 115.968 45.7785L115.967 45.7841L114.921 51.9013L114.921 51.9029C114.864 52.2344 114.9 52.5754 115.027 52.887C115.154 53.1994 115.365 53.4697 115.638 53.6675C115.911 53.8652 116.234 53.9825 116.57 54.0058C116.905 54.0291 117.241 53.9579 117.538 53.8006L117.54 53.7995L122.939 50.9461C122.958 50.9377 122.979 50.9333 123 50.9333C123.021 50.9333 123.042 50.9377 123.062 50.9461L128.461 53.7995L128.462 53.8001C128.759 53.9579 129.095 54.0293 129.43 54.0058C129.766 53.9825 130.089 53.8652 130.362 53.6675C130.635 53.4697 130.847 53.1994 130.973 52.887C131.1 52.5754 131.136 52.2346 131.079 51.9032L131.079 51.9013L130.034 45.7841L130.033 45.7785C130.031 45.77 130.032 45.7613 130.034 45.7532C130.037 45.7451 130.042 45.7378 130.048 45.7319L130.058 45.7224L134.445 41.4901C134.693 41.2531 134.868 40.9494 134.948 40.6154C135.028 40.2801 135.01 39.9287 134.894 39.6037C134.779 39.2788 134.572 38.9943 134.298 38.7846C134.034 38.5819 133.718 38.4577 133.387 38.4255L127.394 37.5377C127.384 37.5361 127.373 37.5348 127.363 37.5336C127.36 37.5333 127.357 37.5322 127.355 37.5304C127.352 37.5287 127.35 37.5263 127.349 37.5236C127.344 37.5125 127.339 37.5016 127.334 37.4908L124.612 31.9964C124.469 31.6929 124.243 31.4359 123.96 31.2551C123.673 31.0719 123.34 30.9746 123 30.9746Z"
            fill="url(#paint0_linear_836_14740)" />
    </g>
    <g clip-path="url(#clip1_836_14740)">
        <path fill-rule="evenodd" clip-rule="evenodd"
            d="M163 30.9746C162.66 30.9746 162.327 31.0719 162.04 31.2551C161.757 31.4359 161.531 31.6929 161.388 31.9964L158.666 37.4908C158.661 37.5016 158.656 37.5125 158.651 37.5236C158.65 37.5263 158.648 37.5287 158.645 37.5304C158.643 37.5322 158.64 37.5333 158.637 37.5336C158.627 37.5348 158.616 37.5361 158.606 37.5377L152.613 38.4255C152.282 38.4577 151.966 38.5819 151.702 38.7846C151.428 38.9943 151.221 39.2788 151.106 39.6037C150.991 39.9287 150.972 40.2801 151.052 40.6154C151.132 40.9494 151.307 41.2531 151.556 41.4901L155.942 45.7224L155.952 45.7319C155.958 45.7378 155.963 45.7451 155.966 45.7532C155.968 45.7613 155.969 45.77 155.968 45.7785L155.967 45.7841L154.921 51.9013L154.921 51.9029C154.864 52.2344 154.9 52.5754 155.027 52.887C155.154 53.1994 155.365 53.4697 155.638 53.6675C155.911 53.8652 156.234 53.9825 156.57 54.0058C156.905 54.0291 157.241 53.9579 157.538 53.8006L157.54 53.7995L162.939 50.9461C162.958 50.9377 162.979 50.9333 163 50.9333C163.021 50.9333 163.042 50.9377 163.062 50.9461L168.461 53.7995L168.462 53.8001C168.759 53.9579 169.095 54.0293 169.43 54.0058C169.766 53.9825 170.089 53.8652 170.362 53.6675C170.635 53.4697 170.847 53.1994 170.973 52.887C171.1 52.5754 171.136 52.2346 171.079 51.9032L171.079 51.9013L170.034 45.7841L170.033 45.7785C170.031 45.77 170.032 45.7613 170.034 45.7532C170.037 45.7451 170.042 45.7378 170.048 45.7319L170.058 45.7224L174.445 41.4901C174.693 41.2531 174.868 40.9494 174.948 40.6154C175.028 40.2801 175.01 39.9287 174.894 39.6037C174.779 39.2788 174.572 38.9943 174.298 38.7846C174.034 38.5819 173.718 38.4577 173.387 38.4255L167.394 37.5377C167.384 37.5361 167.373 37.5348 167.363 37.5336C167.36 37.5333 167.357 37.5322 167.355 37.5304C167.352 37.5287 167.35 37.5263 167.349 37.5236C167.344 37.5125 167.339 37.5016 167.334 37.4908L164.612 31.9964C164.469 31.6929 164.243 31.4359 163.96 31.2551C163.673 31.0719 163.34 30.9746 163 30.9746Z"
            fill="url(#paint1_linear_836_14740)" />
    </g>
    <g clip-path="url(#clip2_836_14740)">
        <path fill-rule="evenodd" clip-rule="evenodd"
            d="M203 30.9746C202.66 30.9746 202.327 31.0719 202.04 31.2551C201.757 31.4359 201.531 31.6929 201.388 31.9964L198.666 37.4908C198.661 37.5016 198.656 37.5125 198.651 37.5236C198.65 37.5263 198.648 37.5287 198.645 37.5304C198.643 37.5322 198.64 37.5333 198.637 37.5336C198.627 37.5348 198.616 37.5361 198.606 37.5377L192.613 38.4255C192.282 38.4577 191.966 38.5819 191.702 38.7846C191.428 38.9943 191.221 39.2788 191.106 39.6037C190.991 39.9287 190.972 40.2801 191.052 40.6154C191.132 40.9494 191.307 41.2531 191.556 41.4901L195.942 45.7224L195.952 45.7319C195.958 45.7378 195.963 45.7451 195.966 45.7532C195.968 45.7613 195.969 45.77 195.968 45.7785L195.967 45.7841L194.921 51.9013L194.921 51.9029C194.864 52.2344 194.9 52.5754 195.027 52.887C195.154 53.1994 195.365 53.4697 195.638 53.6675C195.911 53.8652 196.234 53.9825 196.57 54.0058C196.905 54.0291 197.241 53.9579 197.538 53.8006L197.54 53.7995L202.939 50.9461C202.958 50.9377 202.979 50.9333 203 50.9333C203.021 50.9333 203.042 50.9377 203.062 50.9461L208.461 53.7995L208.462 53.8001C208.759 53.9579 209.095 54.0293 209.43 54.0058C209.766 53.9825 210.089 53.8652 210.362 53.6675C210.635 53.4697 210.847 53.1994 210.973 52.887C211.1 52.5754 211.136 52.2346 211.079 51.9032L211.079 51.9013L210.034 45.7841L210.033 45.7785C210.031 45.77 210.032 45.7613 210.034 45.7532C210.037 45.7451 210.042 45.7378 210.048 45.7319L210.058 45.7224L214.445 41.4901C214.693 41.2531 214.868 40.9494 214.948 40.6154C215.028 40.2801 215.01 39.9287 214.894 39.6037C214.779 39.2788 214.572 38.9943 214.298 38.7846C214.034 38.5819 213.718 38.4577 213.387 38.4255L207.394 37.5377C207.384 37.5361 207.373 37.5348 207.363 37.5336C207.36 37.5333 207.357 37.5322 207.355 37.5304C207.352 37.5287 207.35 37.5263 207.349 37.5236C207.344 37.5125 207.339 37.5016 207.334 37.4908L204.612 31.9964C204.469 31.6929 204.243 31.4359 203.96 31.2551C203.673 31.0719 203.34 30.9746 203 30.9746Z"
            fill="url(#paint2_linear_836_14740)" />
    </g>
    <g clip-path="url(#clip3_836_14740)">
        <path fill-rule="evenodd" clip-rule="evenodd"
            d="M243 30.9746C242.66 30.9746 242.327 31.0719 242.04 31.2551C241.757 31.4359 241.531 31.6929 241.388 31.9964L238.666 37.4908C238.661 37.5016 238.656 37.5125 238.651 37.5236C238.65 37.5263 238.648 37.5287 238.645 37.5304C238.643 37.5322 238.64 37.5333 238.637 37.5336C238.627 37.5348 238.616 37.5361 238.606 37.5377L232.613 38.4255C232.282 38.4577 231.966 38.5819 231.702 38.7846C231.428 38.9943 231.221 39.2788 231.106 39.6037C230.991 39.9287 230.972 40.2801 231.052 40.6154C231.132 40.9494 231.307 41.2531 231.556 41.4901L235.942 45.7224L235.952 45.7319C235.958 45.7378 235.963 45.7451 235.966 45.7532C235.968 45.7613 235.969 45.77 235.968 45.7785L235.967 45.7841L234.921 51.9013L234.921 51.9029C234.864 52.2344 234.9 52.5754 235.027 52.887C235.154 53.1994 235.365 53.4697 235.638 53.6675C235.911 53.8652 236.234 53.9825 236.57 54.0058C236.905 54.0291 237.241 53.9579 237.538 53.8006L237.54 53.7995L242.939 50.9461C242.958 50.9377 242.979 50.9333 243 50.9333C243.021 50.9333 243.042 50.9377 243.062 50.9461L248.461 53.7995L248.462 53.8001C248.759 53.9579 249.095 54.0293 249.43 54.0058C249.766 53.9825 250.089 53.8652 250.362 53.6675C250.635 53.4697 250.847 53.1994 250.973 52.887C251.1 52.5754 251.136 52.2346 251.079 51.9032L251.079 51.9013L250.034 45.7841L250.033 45.7785C250.031 45.77 250.032 45.7613 250.034 45.7532C250.037 45.7451 250.042 45.7378 250.048 45.7319L250.058 45.7224L254.445 41.4901C254.693 41.2531 254.868 40.9494 254.948 40.6154C255.028 40.2801 255.01 39.9287 254.894 39.6037C254.779 39.2788 254.572 38.9943 254.298 38.7846C254.034 38.5819 253.718 38.4577 253.387 38.4255L247.394 37.5377C247.384 37.5361 247.373 37.5348 247.363 37.5336C247.36 37.5333 247.357 37.5322 247.355 37.5304C247.352 37.5287 247.35 37.5263 247.349 37.5236C247.344 37.5125 247.339 37.5016 247.334 37.4908L244.612 31.9964C244.469 31.6929 244.243 31.4359 243.96 31.2551C243.673 31.0719 243.34 30.9746 243 30.9746Z"
            fill="url(#paint3_linear_836_14740)" />
    </g>
    <g clip-path="url(#clip4_836_14740)">
        <path fill-rule="evenodd" clip-rule="evenodd"
            d="M283 30.9746C282.66 30.9746 282.327 31.0719 282.04 31.2551C281.757 31.4359 281.531 31.6929 281.388 31.9964L278.666 37.4908C278.661 37.5016 278.656 37.5125 278.651 37.5236C278.65 37.5263 278.648 37.5287 278.645 37.5304C278.643 37.5322 278.64 37.5333 278.637 37.5336C278.627 37.5348 278.616 37.5361 278.606 37.5377L272.613 38.4255C272.282 38.4577 271.966 38.5819 271.702 38.7846C271.428 38.9943 271.221 39.2788 271.106 39.6037C270.991 39.9287 270.972 40.2801 271.052 40.6154C271.132 40.9494 271.307 41.2531 271.556 41.4901L275.942 45.7224L275.952 45.7319C275.958 45.7378 275.963 45.7451 275.966 45.7532C275.968 45.7613 275.969 45.77 275.968 45.7785L275.967 45.7841L274.921 51.9013L274.921 51.9029C274.864 52.2344 274.9 52.5754 275.027 52.887C275.154 53.1994 275.365 53.4697 275.638 53.6675C275.911 53.8652 276.234 53.9825 276.57 54.0058C276.905 54.0291 277.241 53.9579 277.538 53.8006L277.54 53.7995L282.939 50.9461C282.958 50.9377 282.979 50.9333 283 50.9333C283.021 50.9333 283.042 50.9377 283.062 50.9461L288.461 53.7995L288.462 53.8001C288.759 53.9579 289.095 54.0293 289.43 54.0058C289.766 53.9825 290.089 53.8652 290.362 53.6675C290.635 53.4697 290.847 53.1994 290.973 52.887C291.1 52.5754 291.136 52.2346 291.079 51.9032L291.079 51.9013L290.034 45.7841L290.033 45.7785C290.031 45.77 290.032 45.7613 290.034 45.7532C290.037 45.7451 290.042 45.7378 290.048 45.7319L290.058 45.7224L294.445 41.4901C294.693 41.2531 294.868 40.9494 294.948 40.6154C295.028 40.2801 295.01 39.9287 294.894 39.6037C294.779 39.2788 294.572 38.9943 294.298 38.7846C294.034 38.5819 293.718 38.4577 293.387 38.4255L287.394 37.5377C287.384 37.5361 287.373 37.5348 287.363 37.5336C287.36 37.5333 287.357 37.5322 287.355 37.5304C287.352 37.5287 287.35 37.5263 287.349 37.5236C287.344 37.5125 287.339 37.5016 287.334 37.4908L284.612 31.9964C284.469 31.6929 284.243 31.4359 283.96 31.2551C283.673 31.0719 283.34 30.9746 283 30.9746Z"
            fill="url(#paint4_linear_836_14740)" />
    </g>
    <defs>
        <linearGradient id="paint0_linear_836_14740" x1="123" y1="30.9746" x2="123" y2="54.0102"
            gradientUnits="userSpaceOnUse">
            <stop stop-color="#FFDB5A" />
            <stop offset="1" stop-color="#FFC75A" />
        </linearGradient>
        <linearGradient id="paint1_linear_836_14740" x1="163" y1="30.9746" x2="163" y2="54.0102"
            gradientUnits="userSpaceOnUse">
            <stop stop-color="#FFDB5A" />
            <stop offset="1" stop-color="#FFC75A" />
        </linearGradient>
        <linearGradient id="paint2_linear_836_14740" x1="203" y1="30.9746" x2="203" y2="54.0102"
            gradientUnits="userSpaceOnUse">
            <stop stop-color="#FFDB5A" />
            <stop offset="1" stop-color="#FFC75A" />
        </linearGradient>
        <linearGradient id="paint3_linear_836_14740" x1="243" y1="30.9746" x2="243" y2="54.0102"
            gradientUnits="userSpaceOnUse">
            <stop stop-color="#FFDB5A" />
            <stop offset="1" stop-color="#FFC75A" />
        </linearGradient>
        <linearGradient id="paint4_linear_836_14740" x1="283" y1="30.9746" x2="283" y2="54.0102"
            gradientUnits="userSpaceOnUse">
            <stop stop-color="#FFDB5A" />
            <stop offset="1" stop-color="#FFC75A" />
        </linearGradient>
        <clipPath id="clip0_836_14740">
            <rect width="24" height="24" fill="white" transform="translate(111 30.5)" />
        </clipPath>
        <clipPath id="clip1_836_14740">
            <rect width="24" height="24" fill="white" transform="translate(151 30.5)" />
        </clipPath>
        <clipPath id="clip2_836_14740">
            <rect width="24" height="24" fill="white" transform="translate(191 30.5)" />
        </clipPath>
        <clipPath id="clip3_836_14740">
            <rect width="24" height="24" fill="white" transform="translate(231 30.5)" />
        </clipPath>
        <clipPath id="clip4_836_14740">
            <rect width="24" height="24" fill="white" transform="translate(271 30.5)" />
        </clipPath>
    </defs>
</svg>
    