<svg fill="none" height="67" viewBox="0 0 551 67" width="551" xmlns="http://www.w3.org/2000/svg" xmlns:xlink="http://www.w3.org/1999/xlink"><linearGradient id="a"><stop offset="0" stop-color="#ffdb5a"/><stop offset="1" stop-color="#ffc75a"/></linearGradient><linearGradient id="b" gradientUnits="userSpaceOnUse" x1="123" x2="123" xlink:href="#a" y1="30.9746" y2="54.0102"/><linearGradient id="c" gradientUnits="userSpaceOnUse" x1="163" x2="163" xlink:href="#a" y1="30.9746" y2="54.0102"/><linearGradient id="d" gradientUnits="userSpaceOnUse" x1="203" x2="203" xlink:href="#a" y1="30.9746" y2="54.0102"/><linearGradient id="e" gradientUnits="userSpaceOnUse" x1="243" x2="243" xlink:href="#a" y1="30.9746" y2="54.0102"/><linearGradient id="f" gradientUnits="userSpaceOnUse" x1="283" x2="283" xlink:href="#a" y1="30.9746" y2="54.0102"/><clipPath id="g"><path d="m111 30.5h24v24h-24z"/></clipPath><clipPath id="h"><path d="m151 30.5h24v24h-24z"/></clipPath><clipPath id="i"><path d="m191 30.5h24v24h-24z"/></clipPath><clipPath id="j"><path d="m231 30.5h24v24h-24z"/></clipPath><clipPath id="k"><path d="m271 30.5h24v24h-24z"/></clipPath><path d="m18.66 51.52c-7.62 0-14.46-4.02-16.86-10.8l3.54-1.98c2.28 5.7 7.62 8.94 13.38 8.94 6.66 0 12-4.8 12-11.94 0-6.72-4.92-11.46-11.46-11.46-4.98 0-9 2.64-11.04 6.3l-3.48-1.38 5.46-25.5h22.38v3.78c-6.42 0-12.96 0-20.1-.66-.54 6.66-1.86 12.6-4.08 19.5h.54c2.28-3.42 6.36-5.58 11.16-5.58 7.74 0 15.12 5.46 15.12 14.88 0 9.36-7.32 15.9-16.56 15.9zm27.6473-.6c-1.92 0-3.36-1.5-3.36-3.42 0-1.8 1.44-3.3 3.36-3.3 1.8 0 3.24 1.5 3.24 3.3 0 1.92-1.44 3.42-3.24 3.42zm27.1932.6c-10.44 0-17.52-9.96-17.52-24.3 0-14.4 7.08-24.48 17.52-24.48 10.32 0 17.4 10.08 17.4 24.48 0 14.34-7.08 24.3-17.4 24.3zm-12.9-24.3c0 12.3 5.22 20.28 12.9 20.28 7.62 0 12.78-7.98 12.78-20.28 0-12.36-5.16-20.46-12.78-20.46-7.68 0-12.9 8.1-12.9 20.46z" fill="#1c1f32"/><path d="m112.58 17.5v-11.1h2c0 .68.08 1.36-.22 2.62h.3c.56-1.92 1.8-2.94 3.36-2.94.38 0 .78.06 1.18.22v2.24c-.42-.16-1.02-.24-1.36-.24-2.46 0-3.22 2.38-3.22 4.32v4.88zm10.965.34c-1.88 0-3.62-1-3.62-3.06 0-2.08 1.78-2.94 3.82-3.36 2.26-.46 3.42-.54 3.42-1.7 0-1.04-.92-1.96-2.34-1.96-1.24 0-2.22.74-2.6 2.06l-1.92-.64c.66-2.22 2.64-3.1 4.62-3.1 2.36 0 4.3 1.2 4.3 3.82v4.14c0 1.82.14 2.6.36 3.46h-2.02c-.2-.64-.3-1.2 0-2.3h-.3c-.64 1.7-1.96 2.64-3.72 2.64zm-1.4-3.12c0 .98.8 1.52 1.9 1.52 1.94 0 3.12-1.74 3.12-3.06v-1.32c-.6.46-1.32.68-2.42.9-1.08.22-2.6.66-2.6 1.96zm14.065 3.12c-3.2 0-3.2-2.54-3.2-3.76 0-1.94 0-3.9.3-6.1-1.04.26-1.76.26-2.5.26v-1.84c.74 0 1.46 0 2.5.26-.3-1.32-.3-2.4-.3-3.48h2.04c0 1.08 0 2.16-.3 3.48 1.36-.26 2.44-.26 3.5-.26v1.84c-1.06 0-2.14 0-3.5-.26.3 1.98.3 3.7.3 5.42 0 1.16 0 2.6 1.54 2.6.52 0 1.1-.16 1.66-.5v1.86c-.56.32-1.3.48-2.04.48zm8.847 0c-3.22 0-5.62-2.34-5.62-5.84 0-3.44 2.3-5.92 5.5-5.92 2.42 0 5.2 1.46 5.2 5.72v.58h-8.64c.14 2.26 1.64 3.64 3.56 3.64 1.58 0 2.74-.96 3.3-2.34l1.88.74c-.78 2.06-2.72 3.42-5.18 3.42zm-3.46-6.88h6.46c-.12-2.3-1.66-3.12-3.14-3.12-1.8 0-3.02 1.28-3.32 3.12zm15.343 6.88c-3.02 0-5.1-2.46-5.1-5.88 0-3.6 2.28-5.88 5.1-5.88 1.7 0 3.04.84 3.78 2.8h.3c-.28-2.88-.28-5.12-.26-7.38h2.04v12.54c0 1.84.14 2.6.36 3.46h-2.02c-.18-.72-.26-1.28-.1-2.28h-.28c-.76 1.92-2.26 2.62-3.82 2.62zm-2.98-5.88c0 2.28 1.42 3.96 3.38 3.96 1.94 0 3.46-1.64 3.46-3.98s-1.52-3.96-3.46-3.96c-1.96 0-3.38 1.68-3.38 3.98zm21.938 5.88c-3.34 0-5.66-2.4-5.66-5.86s2.32-5.9 5.66-5.9c3.3 0 5.62 2.44 5.62 5.9s-2.32 5.86-5.62 5.86zm-3.521-5.86c0 2.32 1.421 3.96 3.521 3.96 2.06 0 3.48-1.64 3.48-3.96 0-2.34-1.42-3.98-3.48-3.98-2.1 0-3.521 1.64-3.521 3.98zm11.512 5.52v-11.1h2c0 .64 0 1.28-.3 2.28h.28c.9-1.92 2.26-2.6 3.76-2.6 2 0 3.96 1.24 3.96 4.44v6.98h-2.04v-6.08c0-2.16-.92-3.42-2.58-3.42-1.84 0-3.04 1.5-3.04 3.54v5.96zm21.384.34c-3.2 0-3.2-2.54-3.2-3.76 0-1.94 0-3.9.3-6.1-1.04.26-1.76.26-2.5.26v-1.84c.74 0 1.46 0 2.5.26-.3-1.32-.3-2.4-.3-3.48h2.04c0 1.08 0 2.16-.3 3.48 1.36-.26 2.44-.26 3.5-.26v1.84c-1.06 0-2.14 0-3.5-.26.3 1.98.3 3.7.3 5.42 0 1.16 0 2.6 1.54 2.6.52 0 1.1-.16 1.66-.5v1.86c-.56.32-1.3.48-2.04.48zm4.143-.34v-16h2.04c0 2.32-.06 4.66-.34 7.18h.28c.9-1.92 2.26-2.6 3.74-2.6 2 0 3.98 1.24 3.98 4.44v6.98h-2.04v-6.08c0-2.16-.92-3.42-2.58-3.42-1.84 0-3.04 1.5-3.04 3.54v5.96zm17.555.34c-3.22 0-5.62-2.34-5.62-5.84 0-3.44 2.3-5.92 5.5-5.92 2.42 0 5.2 1.46 5.2 5.72v.58h-8.64c.14 2.26 1.64 3.64 3.56 3.64 1.58 0 2.74-.96 3.3-2.34l1.88.74c-.78 2.06-2.72 3.42-5.18 3.42zm-3.46-6.88h6.46c-.12-2.3-1.66-3.12-3.14-3.12-1.8 0-3.02 1.28-3.32 3.12zm13.997 6.54 6.14-15.6h2.46l6.14 15.6h-2.3c-.6-1.48-1.24-3.1-1.6-4.88l-.22-.2c-2.72.42-3.92.42-6.48 0l-.22.22c-.42 1.7-1.06 3.34-1.66 4.86zm4.66-6.68.16.2c1.94-.4 3.1-.42 5.04 0l.14-.2c-1.06-2.28-1.84-4.34-2.36-7h-.58c-.56 2.68-1.36 4.8-2.4 7zm11.818 11.08v-15.5h2c0 .68.02 1.34-.26 2.48h.3c.96-2.06 2.36-2.8 3.94-2.8 2.98 0 4.98 2.54 4.98 5.84 0 3.62-2.34 5.92-5.1 5.92-1.68 0-3.04-.86-3.76-2.62h-.3c.3 2.54.24 4.62.24 6.68zm2-9.92c0 2.34 1.54 3.96 3.46 3.96 1.96 0 3.38-1.7 3.38-3.98 0-2.3-1.44-3.96-3.38-3.96-1.92 0-3.46 1.62-3.46 3.98zm11.36 9.92v-15.5h2c0 .68.02 1.34-.26 2.48h.3c.96-2.06 2.36-2.8 3.94-2.8 2.98 0 4.98 2.54 4.98 5.84 0 3.62-2.34 5.92-5.1 5.92-1.68 0-3.04-.86-3.76-2.62h-.3c.3 2.54.24 4.62.24 6.68zm2-9.92c0 2.34 1.54 3.96 3.46 3.96 1.96 0 3.38-1.7 3.38-3.98 0-2.3-1.44-3.96-3.38-3.96-1.92 0-3.46 1.62-3.46 3.98zm20.078 5.86c-2.36 0-4.14-1.24-4.7-3.12l1.88-.6c.54 1.32 1.7 2.04 2.8 2.04.8 0 2.02-.38 2.02-1.58 0-1.04-1-1.36-1.98-1.64l-1.12-.32c-1.2-.36-3.08-1.1-3.08-3.26 0-2.12 1.86-3.28 3.9-3.28 2.06 0 3.6 1.2 4.08 2.76l-1.9.64c-.32-.9-1.06-1.72-2.28-1.72-1.02 0-1.76.56-1.76 1.46 0 1.12 1.3 1.54 2.28 1.82l.94.28c1.14.32 3.06.88 3.06 3.04 0 2.04-1.66 3.48-4.14 3.48zm10.321 0c-3.2 0-3.2-2.54-3.2-3.76 0-1.94 0-3.9.3-6.1-1.04.26-1.76.26-2.5.26v-1.84c.74 0 1.46 0 2.5.26-.3-1.32-.3-2.4-.3-3.48h2.04c0 1.08 0 2.16-.3 3.48 1.36-.26 2.44-.26 3.5-.26v1.84c-1.06 0-2.14 0-3.5-.26.3 1.98.3 3.7.3 5.42 0 1.16 0 2.6 1.54 2.6.52 0 1.1-.16 1.66-.5v1.86c-.56.32-1.3.48-2.04.48zm8.887 0c-3.34 0-5.66-2.4-5.66-5.86s2.32-5.9 5.66-5.9c3.3 0 5.62 2.44 5.62 5.9s-2.32 5.86-5.62 5.86zm-3.52-5.86c0 2.32 1.42 3.96 3.52 3.96 2.06 0 3.48-1.64 3.48-3.96 0-2.34-1.42-3.98-3.48-3.98-2.1 0-3.52 1.64-3.52 3.98zm11.511 5.52v-11.1h2c0 .68.08 1.36-.22 2.62h.3c.56-1.92 1.8-2.94 3.36-2.94.38 0 .78.06 1.18.22v2.24c-.42-.16-1.02-.24-1.36-.24-2.46 0-3.22 2.38-3.22 4.32v4.88zm12.887.34c-3.22 0-5.62-2.34-5.62-5.84 0-3.44 2.3-5.92 5.5-5.92 2.42 0 5.2 1.46 5.2 5.72v.58h-8.64c.14 2.26 1.64 3.64 3.56 3.64 1.58 0 2.74-.96 3.3-2.34l1.88.74c-.78 2.06-2.72 3.42-5.18 3.42zm-3.46-6.88h6.46c-.12-2.3-1.66-3.12-3.14-3.12-1.8 0-3.02 1.28-3.32 3.12z" fill="#0c0c0c"/><g clip-path="url(#g)"><path clip-rule="evenodd" d="m123 30.9746c-.34 0-.673.0973-.96.2805-.283.1808-.509.4378-.652.7413l-2.722 5.4944c-.005.0108-.01.0217-.015.0328-.001.0027-.003.0051-.006.0068-.002.0018-.005.0029-.008.0032-.01.0012-.021.0025-.031.0041l-5.993.8878c-.331.0322-.647.1564-.911.3591-.274.2097-.481.4942-.596.8191-.115.325-.134.6764-.054 1.0117.08.334.255.6377.504.8747l4.386 4.2323.01.0095c.006.0059.011.0132.014.0213.002.0081.003.0168.002.0253l-.001.0056-1.046 6.1172v.0016c-.057.3315-.021.6725.106.9841.127.3124.338.5827.611.7805.273.1977.596.315.932.3383.335.0233.671-.0479.968-.2052l.002-.0011 5.399-2.8534c.019-.0084.04-.0128.061-.0128s.042.0044.062.0128l5.399 2.8534.001.0006c.297.1578.633.2292.968.2057.336-.0233.659-.1406.932-.3383.273-.1978.485-.4681.611-.7805.127-.3116.163-.6524.106-.9838v-.0019l-1.045-6.1172-.001-.0056c-.002-.0085-.001-.0172.001-.0253.003-.0081.008-.0154.014-.0213l.01-.0095 4.387-4.2323c.248-.237.423-.5407.503-.8747.08-.3353.062-.6867-.054-1.0117-.115-.3249-.322-.6094-.596-.8191-.264-.2027-.58-.3269-.911-.3591l-5.993-.8878c-.01-.0016-.021-.0029-.031-.0041-.003-.0003-.006-.0014-.008-.0032-.003-.0017-.005-.0041-.006-.0068-.005-.0111-.01-.022-.015-.0328l-2.722-5.4944c-.143-.3035-.369-.5605-.652-.7413-.287-.1832-.62-.2805-.96-.2805z" fill="url(#b)" fill-rule="evenodd"/></g><g clip-path="url(#h)"><path clip-rule="evenodd" d="m163 30.9746c-.34 0-.673.0973-.96.2805-.283.1808-.509.4378-.652.7413l-2.722 5.4944c-.005.0108-.01.0217-.015.0328-.001.0027-.003.0051-.006.0068-.002.0018-.005.0029-.008.0032-.01.0012-.021.0025-.031.0041l-5.993.8878c-.331.0322-.647.1564-.911.3591-.274.2097-.481.4942-.596.8191-.115.325-.134.6764-.054 1.0117.08.334.255.6377.504.8747l4.386 4.2323.01.0095c.006.0059.011.0132.014.0213.002.0081.003.0168.002.0253l-.001.0056-1.046 6.1172v.0016c-.057.3315-.021.6725.106.9841.127.3124.338.5827.611.7805.273.1977.596.315.932.3383.335.0233.671-.0479.968-.2052l.002-.0011 5.399-2.8534c.019-.0084.04-.0128.061-.0128s.042.0044.062.0128l5.399 2.8534.001.0006c.297.1578.633.2292.968.2057.336-.0233.659-.1406.932-.3383.273-.1978.485-.4681.611-.7805.127-.3116.163-.6524.106-.9838v-.0019l-1.045-6.1172-.001-.0056c-.002-.0085-.001-.0172.001-.0253.003-.0081.008-.0154.014-.0213l.01-.0095 4.387-4.2323c.248-.237.423-.5407.503-.8747.08-.3353.062-.6867-.054-1.0117-.115-.3249-.322-.6094-.596-.8191-.264-.2027-.58-.3269-.911-.3591l-5.993-.8878c-.01-.0016-.021-.0029-.031-.0041-.003-.0003-.006-.0014-.008-.0032-.003-.0017-.005-.0041-.006-.0068-.005-.0111-.01-.022-.015-.0328l-2.722-5.4944c-.143-.3035-.369-.5605-.652-.7413-.287-.1832-.62-.2805-.96-.2805z" fill="url(#c)" fill-rule="evenodd"/></g><g clip-path="url(#i)"><path clip-rule="evenodd" d="m203 30.9746c-.34 0-.673.0973-.96.2805-.283.1808-.509.4378-.652.7413l-2.722 5.4944c-.005.0108-.01.0217-.015.0328-.001.0027-.003.0051-.006.0068-.002.0018-.005.0029-.008.0032-.01.0012-.021.0025-.031.0041l-5.993.8878c-.331.0322-.647.1564-.911.3591-.274.2097-.481.4942-.596.8191-.115.325-.134.6764-.054 1.0117.08.334.255.6377.504.8747l4.386 4.2323.01.0095c.006.0059.011.0132.014.0213.002.0081.003.0168.002.0253l-.001.0056-1.046 6.1172v.0016c-.057.3315-.021.6725.106.9841.127.3124.338.5827.611.7805.273.1977.596.315.932.3383.335.0233.671-.0479.968-.2052l.002-.0011 5.399-2.8534c.019-.0084.04-.0128.061-.0128s.042.0044.062.0128l5.399 2.8534.001.0006c.297.1578.633.2292.968.2057.336-.0233.659-.1406.932-.3383.273-.1978.485-.4681.611-.7805.127-.3116.163-.6524.106-.9838v-.0019l-1.045-6.1172-.001-.0056c-.002-.0085-.001-.0172.001-.0253.003-.0081.008-.0154.014-.0213l.01-.0095 4.387-4.2323c.248-.237.423-.5407.503-.8747.08-.3353.062-.6867-.054-1.0117-.115-.3249-.322-.6094-.596-.8191-.264-.2027-.58-.3269-.911-.3591l-5.993-.8878c-.01-.0016-.021-.0029-.031-.0041-.003-.0003-.006-.0014-.008-.0032-.003-.0017-.005-.0041-.006-.0068-.005-.0111-.01-.022-.015-.0328l-2.722-5.4944c-.143-.3035-.369-.5605-.652-.7413-.287-.1832-.62-.2805-.96-.2805z" fill="url(#d)" fill-rule="evenodd"/></g><g clip-path="url(#j)"><path clip-rule="evenodd" d="m243 30.9746c-.34 0-.673.0973-.96.2805-.283.1808-.509.4378-.652.7413l-2.722 5.4944c-.005.0108-.01.0217-.015.0328-.001.0027-.003.0051-.006.0068-.002.0018-.005.0029-.008.0032-.01.0012-.021.0025-.031.0041l-5.993.8878c-.331.0322-.647.1564-.911.3591-.274.2097-.481.4942-.596.8191-.115.325-.134.6764-.054 1.0117.08.334.255.6377.504.8747l4.386 4.2323.01.0095c.006.0059.011.0132.014.0213.002.0081.003.0168.002.0253l-.001.0056-1.046 6.1172v.0016c-.057.3315-.021.6725.106.9841.127.3124.338.5827.611.7805.273.1977.596.315.932.3383.335.0233.671-.0479.968-.2052l.002-.0011 5.399-2.8534c.019-.0084.04-.0128.061-.0128s.042.0044.062.0128l5.399 2.8534.001.0006c.297.1578.633.2292.968.2057.336-.0233.659-.1406.932-.3383.273-.1978.485-.4681.611-.7805.127-.3116.163-.6524.106-.9838v-.0019l-1.045-6.1172-.001-.0056c-.002-.0085-.001-.0172.001-.0253.003-.0081.008-.0154.014-.0213l.01-.0095 4.387-4.2323c.248-.237.423-.5407.503-.8747.08-.3353.062-.6867-.054-1.0117-.115-.3249-.322-.6094-.596-.8191-.264-.2027-.58-.3269-.911-.3591l-5.993-.8878c-.01-.0016-.021-.0029-.031-.0041-.003-.0003-.006-.0014-.008-.0032-.003-.0017-.005-.0041-.006-.0068-.005-.0111-.01-.022-.015-.0328l-2.722-5.4944c-.143-.3035-.369-.5605-.652-.7413-.287-.1832-.62-.2805-.96-.2805z" fill="url(#e)" fill-rule="evenodd"/></g><g clip-path="url(#k)"><path clip-rule="evenodd" d="m283 30.9746c-.34 0-.673.0973-.96.2805-.283.1808-.509.4378-.652.7413l-2.722 5.4944c-.005.0108-.01.0217-.015.0328-.001.0027-.003.0051-.006.0068-.002.0018-.005.0029-.008.0032-.01.0012-.021.0025-.031.0041l-5.993.8878c-.331.0322-.647.1564-.911.3591-.274.2097-.481.4942-.596.8191-.115.325-.134.6764-.054 1.0117.08.334.255.6377.504.8747l4.386 4.2323.01.0095c.006.0059.011.0132.014.0213.002.0081.003.0168.002.0253l-.001.0056-1.046 6.1172v.0016c-.057.3315-.021.6725.106.9841.127.3124.338.5827.611.7805.273.1977.596.315.932.3383.335.0233.671-.0479.968-.2052l.002-.0011 5.399-2.8534c.019-.0084.04-.0128.061-.0128s.042.0044.062.0128l5.399 2.8534.001.0006c.297.1578.633.2292.968.2057.336-.0233.659-.1406.932-.3383.273-.1978.485-.4681.611-.7805.127-.3116.163-.6524.106-.9838v-.0019l-1.045-6.1172-.001-.0056c-.002-.0085-.001-.0172.001-.0253.003-.0081.008-.0154.014-.0213l.01-.0095 4.387-4.2323c.248-.237.423-.5407.503-.8747.08-.3353.062-.6867-.054-1.0117-.115-.3249-.322-.6094-.596-.8191-.264-.2027-.58-.3269-.911-.3591l-5.993-.8878c-.01-.0016-.021-.0029-.031-.0041-.003-.0003-.006-.0014-.008-.0032-.003-.0017-.005-.0041-.006-.0068-.005-.0111-.01-.022-.015-.0328l-2.722-5.4944c-.143-.3035-.369-.5605-.652-.7413-.287-.1832-.62-.2805-.96-.2805z" fill="url(#f)" fill-rule="evenodd"/></g></svg>