<svg fill="none" height="32" viewBox="0 0 32 32" width="32" xmlns="http://www.w3.org/2000/svg" xmlns:xlink="http://www.w3.org/1999/xlink"><clipPath id="a"><path d="m3.20001 3.19995h25.6v25.6h-25.6z"/></clipPath><g clip-path="url(#a)"><path d="m18.0481 28.7996h-4.0986c-.1071-.0125-.2117-.0324-.3188-.0399-1.9671-.137-3.9342-.2465-5.89883-.4134-1.98456-.1694-3.73256-1.7583-4.01393-3.7333-.22161-1.5441-.28885-3.1131-.41086-4.6722-.05478-.645-.0747-1.2926-.10707-1.9401 0-1.3499 0-2.6997 0-4.0496.01245-.0971.03237-.1942.03984-.2914.13695-1.9849.24901-3.97234.41584-5.95478.16932-2.04223 1.9472-3.82045 3.98405-4.04709 2.2211-.24905 4.44716-.3935 6.68076-.44082 3.3516-.07223 6.6957.07222 10.0298.43833 2.012.22165 3.7923 1.97 3.9866 3.99229.1693 1.74834.3137 3.50167.3934 5.25497.1718 3.7931.0299 7.5787-.376 11.3543-.2166 2.0073-1.7679 3.7507-3.7624 4.0296-1.5563.2192-3.1325.2864-4.7012.411-.6126.0498-1.2276.0672-1.8426.1021zm1.1379-20.78088h-2.495v.31131 10.37297c0 .1818-.01.3661-.0324.5479-.1693 1.32-1.2973 2.2814-2.6519 2.2589-1.3122-.0199-2.3979-1.0285-2.5423-2.361-.1394-1.2801.7495-2.5403 2.0269-2.7869.4831-.0946.9935-.0547 1.4915-.0747.1046-.005.2092 0 .3113 0v-2.488c-.4283 0-.8342-.005-1.2425 0-.2167.0025-.4333.0174-.6474.0448-2.8038.3537-4.8058 2.9812-4.39495 5.7656.41086 2.7769 2.89095 4.6697 5.69225 4.3484 2.4402-.2814 4.3899-2.3685 4.4472-4.8241.0398-1.7235.0149-3.4494.0174-5.1728 0-.0947 0-.1918 0-.3437 1.2226.7696 2.5274.7895 3.862.7198v-2.4706c-.132 0-.2465 0-.361 0-.4233-.0075-.8566.0274-1.2724-.0349-1.2625-.1893-2.1564-1.2154-2.2062-2.4955-.0174-.43086-.0025-.86421-.0025-1.31499z" fill="#404b59"/></g></svg>