<svg width="32" height="32" viewBox="0 0 32 32" fill="none" xmlns="http://www.w3.org/2000/svg">
<path fill-rule="evenodd" clip-rule="evenodd" d="M28.8 7.45189C27.8581 7.9021 26.8459 8.2053 25.7835 8.34197C26.8683 7.64254 27.7013 6.53426 28.0928 5.2135C27.0784 5.86125 25.9541 6.33212 24.7573 6.58594C23.8005 5.48684 22.4341 4.80005 20.9237 4.80005C17.5328 4.80005 15.0411 8.20645 15.8069 11.7426C11.4432 11.5072 7.57335 9.25616 4.98241 5.83483C3.60641 8.37642 4.26881 11.7013 6.60695 13.385C5.74721 13.3551 4.93655 13.1013 4.22935 12.6775C4.17175 15.2972 5.91575 17.748 8.44161 18.2936C7.70241 18.5095 6.89281 18.56 6.06935 18.39C6.73708 20.6365 8.67628 22.2708 10.976 22.3167C8.76801 24.1807 5.98615 25.0133 3.20001 24.6596C5.52428 26.264 8.28588 27.2001 11.2512 27.2001C21.0027 27.2001 26.512 18.3326 26.1792 10.3794C27.2053 9.58118 28.096 8.58545 28.8 7.45189Z" fill="#404B59"/>
</svg>
